<?xml version="1.0" encoding="UTF-8"?>
<svg xmlns="http://www.w3.org/2000/svg" xmlns:xlink="http://www.w3.org/1999/xlink" width="1116" height="1081"><defs><style type="text/css"><![CDATA[@import url("https://atlas.mindmup.com/_resources/22/fonts.css")]]></style></defs><rect width="100%" height="100%" fill="#FFFFFF"/><g transform="translate(873,520.5625)" style="fill:none;"><g transform="translate(-279,-149)"><path d="M93,41Q93,236.6 206,179" stroke="#707070" stroke-width="1" stroke-linecap="round"/></g><g transform="translate(-73,-62)"><path d="M50,92Q50,-27 120,24" stroke="#707070" stroke-width="1" stroke-linecap="round"/></g><g transform="translate(-73,6)"><path d="M90,24L120,24" stroke="#707070" stroke-width="1" stroke-linecap="round"/></g><g transform="translate(-73,6)"><path d="M50,24Q50,143 120,92" stroke="#707070" stroke-width="1" stroke-linecap="round"/></g><g transform="translate(-408,-245.5625)"><path d="M222,138Q222,-33.599999999999994 109,24" stroke="#707070" stroke-width="1" stroke-linecap="round"/></g><g transform="translate(-545,-245.5625)"><path d="M147,24L117,24" stroke="#707070" stroke-width="1" stroke-linecap="round"/></g><g transform="translate(-395,-149)"><path d="M209,41Q209,364.6 96,307" stroke="#707070" stroke-width="1" stroke-linecap="round"/></g><g transform="translate(-279,-284.484375)"><path d="M93,176Q93,-33.599999999999994 206,24" stroke="#707070" stroke-width="1" stroke-linecap="round"/></g><g transform="translate(-73,-386.484375)"><path d="M43,126Q43,-33.599999999999994 105,24" stroke="#707070" stroke-width="1" stroke-linecap="round"/></g><g transform="translate(-73,-318.484375)"><path d="M43,58Q43,-17.25 105,15" stroke="#707070" stroke-width="1" stroke-linecap="round"/></g><g transform="translate(-73,-284.484375)"><path d="M75,24Q75,49 105,49" stroke="#707070" stroke-width="1" stroke-linecap="round"/></g><g transform="translate(-73,-284.484375)"><path d="M43,24Q43,183.6 105,126" stroke="#707070" stroke-width="1" stroke-linecap="round"/></g><g transform="translate(-496,-149)"><path d="M310,41Q310,538.6 196,481" stroke="#707070" stroke-width="1" stroke-linecap="round"/></g><g transform="translate(-665,299.4375)"><path d="M179,33L149,33" stroke="#707070" stroke-width="1" stroke-linecap="round"/></g><g transform="translate(-843,134.4375)"><path d="M253,198Q253,-46.19999999999999 158,33" stroke="#707070" stroke-width="1" stroke-linecap="round"/></g><g transform="translate(-843,220.4375)"><path d="M253,112Q253,-26.25 158,33" stroke="#707070" stroke-width="1" stroke-linecap="round"/></g><g transform="translate(-843,299.4375)"><path d="M188,33Q188,58 158,58" stroke="#707070" stroke-width="1" stroke-linecap="round"/></g><g transform="translate(-843,299.4375)"><path d="M253,33Q253,259.2 158,180" stroke="#707070" stroke-width="1" stroke-linecap="round"/></g><g transform="translate(-466,-430.5625)"><path d="M280,323Q280,-33.60000000000002 167,24" stroke="#707070" stroke-width="1" stroke-linecap="round"/></g><g transform="translate(-653,-490.5625)"><path d="M271,84Q271,-25.19999999999999 167,18" stroke="#707070" stroke-width="1" stroke-linecap="round"/></g><g transform="translate(-564,-434.5625)"><path d="M108,28Q108,22 78,22" stroke="#707070" stroke-width="1" stroke-linecap="round"/></g><g transform="translate(-673,-430.5625)"><path d="M291,24Q291,129 187,84" stroke="#707070" stroke-width="1" stroke-linecap="round"/></g><g transform="translate(-464,-149)"><path d="M278,41Q278,168.75 165,114" stroke="#707070" stroke-width="1" stroke-linecap="round"/></g><g transform="translate(-592,-148.54979458951948)"><path d="M211,114Q211,-21 107,15" stroke="#707070" stroke-width="1" stroke-linecap="round"/></g><g transform="translate(-622,-58.5625)"><path d="M241,24Q241,171 138,135" stroke="#707070" stroke-width="1" stroke-linecap="round"/></g><g transform="translate(-642,-87.56541958951948)"><path d="M188,53Q188,24 158,24" stroke="#707070" stroke-width="1" stroke-linecap="round"/></g><g transform="translate(-643,-58.5625)"><path d="M262,24Q262,115 158,76" stroke="#707070" stroke-width="1" stroke-linecap="round"/></g><g transform="translate(-592,-245.5625)"><path d="M107,112L184,24" stroke-dasharray="4, 4" stroke="#c60c30" stroke-width="1"/><path d="M172,31L184,24L179,37Z" fill="#c60c30" stroke="#c60c30" stroke-width="1"/></g><g transform="translate(-279,-149)"><rect x="0" y="0" width="186" height="81" border="1" rx="10" ry="10" style="fill:#000000;stroke:#707070;stroke-width:1px;"/><text font-family="NotoSans, 'Helvetica Neue', Roboto, Helvetica, Arial, sans-serif" font-size="15" font-weight="bold" lengthAdjust="spacingAndGlyphs" style="fill:#FFFFFF;"><tspan y="21" x="93" text-anchor="middle" textLength="40">IMDS</tspan><tspan y="44" x="93" text-anchor="middle" textLength="174">(International Material</tspan><tspan y="67" x="93" text-anchor="middle" textLength="100">Data System)</tspan></text></g><g transform="translate(-466,-430.5625)"><rect x="0" y="0" width="167" height="48" border="1" rx="10" ry="10" style="fill:#a71930;stroke:#707070;stroke-width:1px;"/><image xlink:href="image8.png" x="125" y="6" width="36" height="36"/><text font-family="NotoSans, 'Helvetica Neue', Roboto, Helvetica, Arial, sans-serif" font-size="12" font-weight="bold" lengthAdjust="spacingAndGlyphs" style="fill:#FFFFFF;"><tspan y="27" x="63" text-anchor="middle" textLength="114">Clients/ Customers</tspan></text></g><g transform="translate(-653,-490.5625)"><rect x="0" y="0" width="167" height="36" border="1" rx="10" ry="10" style="fill:#E0E0E0;stroke:#707070;stroke-width:1px;"/><image xlink:href="image9.png" x="137" y="6" width="24" height="24"/><text font-family="NotoSans, 'Helvetica Neue', Roboto, Helvetica, Arial, sans-serif" font-size="12" font-weight="bold" lengthAdjust="spacingAndGlyphs" style="fill:#4F4F4F;"><tspan y="21" x="132" text-anchor="end" textLength="126">Material Data Sheets</tspan></text></g><g transform="translate(-564,-434.5625)"><rect x="0" y="0" width="78" height="44" border="1" rx="10" ry="10" style="fill:#E0E0E0;stroke:#707070;stroke-width:1px;"/><image xlink:href="image10.png" x="40" y="6" width="32" height="32"/><text font-family="NotoSans, 'Helvetica Neue', Roboto, Helvetica, Arial, sans-serif" font-size="12" font-weight="bold" lengthAdjust="spacingAndGlyphs" style="fill:#4F4F4F;"><tspan y="25" x="35" text-anchor="end" textLength="29">PFAS</tspan></text></g><g transform="translate(-673,-370.5625)"><rect x="0" y="0" width="187" height="48" border="1" rx="10" ry="10" style="fill:#E0E0E0;stroke:#707070;stroke-width:1px;"/><image xlink:href="image11.png" x="157" y="12" width="24" height="24"/><text font-family="NotoSans, 'Helvetica Neue', Roboto, Helvetica, Arial, sans-serif" font-size="12" font-weight="bold" lengthAdjust="spacingAndGlyphs" style="fill:#4F4F4F;"><tspan y="18" x="79" text-anchor="middle" textLength="107">Conflict Minerals/</tspan><tspan y="36" x="79" text-anchor="middle" textLength="112">Extended Minerals</tspan></text></g><g transform="translate(-408,-245.5625)"><rect x="0" y="0" width="109" height="48" border="1" rx="10" ry="10" style="fill:#a71930;stroke:#707070;stroke-width:1px;"/><image xlink:href="image12.png" x="67" y="6" width="36" height="36"/><text font-family="NotoSans, 'Helvetica Neue', Roboto, Helvetica, Arial, sans-serif" font-size="12" font-weight="bold" lengthAdjust="spacingAndGlyphs" style="fill:#FFFFFF;"><tspan y="27" x="34" text-anchor="middle" textLength="56">Suppliers</tspan></text></g><g transform="translate(-545,-239.5625)"><rect x="0" y="0" width="117" height="36" border="1" rx="10" ry="10" style="fill:#E0E0E0;stroke:#707070;stroke-width:1px;"/><image xlink:href="image13.png" x="87" y="6" width="24" height="24"/><text font-family="NotoSans, 'Helvetica Neue', Roboto, Helvetica, Arial, sans-serif" font-size="12" font-weight="bold" lengthAdjust="spacingAndGlyphs" style="fill:#4F4F4F;"><tspan y="21" x="44" text-anchor="middle" textLength="76">Components</tspan></text></g><g transform="translate(-464,-58.5625)"><rect x="0" y="0" width="165" height="48" border="1" rx="10" ry="10" style="fill:#a71930;stroke:#707070;stroke-width:1px;"/><image xlink:href="image14.png" x="123" y="6" width="36" height="36"/><text font-family="NotoSans, 'Helvetica Neue', Roboto, Helvetica, Arial, sans-serif" font-size="12" font-weight="bold" lengthAdjust="spacingAndGlyphs" style="fill:#FFFFFF;"><tspan y="27" x="62" text-anchor="middle" textLength="112">Support from/ to...</tspan></text></g><g transform="translate(-592,-148.54979458951948)"><rect x="0" y="0" width="107" height="30" border="1" rx="10" ry="10" style="fill:#E0E0E0;stroke:#707070;stroke-width:1px;"/><text font-family="NotoSans, 'Helvetica Neue', Roboto, Helvetica, Arial, sans-serif" font-size="12" font-weight="bold" lengthAdjust="spacingAndGlyphs" style="fill:#4F4F4F;"><tspan y="18" x="54" text-anchor="middle" textLength="95">from: SQM/ SQE</tspan></text></g><g transform="translate(-642,-87.56541958951948)"><rect x="0" y="0" width="158" height="48" border="1" rx="10" ry="10" style="fill:#E0E0E0;stroke:#707070;stroke-width:1px;"/><text font-family="NotoSans, 'Helvetica Neue', Roboto, Helvetica, Arial, sans-serif" font-size="12" font-weight="bold" lengthAdjust="spacingAndGlyphs" style="fill:#4F4F4F;"><tspan y="18" x="79" text-anchor="middle" textLength="89">from: Sourcing</tspan><tspan y="36" x="79" text-anchor="middle" textLength="87">(Procurement)</tspan></text></g><g transform="translate(-643,-6.565419589519479)"><rect x="0" y="0" width="158" height="48" border="1" rx="10" ry="10" style="fill:#E0E0E0;stroke:#707070;stroke-width:1px;"/><text font-family="NotoSans, 'Helvetica Neue', Roboto, Helvetica, Arial, sans-serif" font-size="12" font-weight="bold" lengthAdjust="spacingAndGlyphs" style="fill:#4F4F4F;"><tspan y="18" x="79" text-anchor="middle" textLength="83">from: Product</tspan><tspan y="36" x="79" text-anchor="middle" textLength="73">Engineering</tspan></text></g><g transform="translate(-622,61.43458041048052)"><rect x="0" y="0" width="138" height="30" border="1" rx="10" ry="10" style="fill:#E0E0E0;stroke:#707070;stroke-width:1px;"/><text font-family="NotoSans, 'Helvetica Neue', Roboto, Helvetica, Arial, sans-serif" font-size="12" font-weight="bold" lengthAdjust="spacingAndGlyphs" style="fill:#4F4F4F;"><tspan y="18" x="69" text-anchor="middle" textLength="126">to: Advanced Quality</tspan></text></g><g transform="translate(-395,134.4375)"><rect x="0" y="0" width="96" height="48" border="1" rx="10" ry="10" style="fill:#a71930;stroke:#707070;stroke-width:1px;"/><image xlink:href="image15.png" x="54" y="6" width="36" height="36"/><text font-family="NotoSans, 'Helvetica Neue', Roboto, Helvetica, Arial, sans-serif" font-size="12" font-weight="bold" lengthAdjust="spacingAndGlyphs" style="fill:#FFFFFF;"><tspan y="27" x="28" text-anchor="middle" textLength="43">Portals</tspan></text></g><g transform="translate(-496,308.4375)"><rect x="0" y="0" width="196" height="48" border="1" rx="10" ry="10" style="fill:#a71930;stroke:#707070;stroke-width:1px;"/><image xlink:href="image16.png" x="154" y="6" width="36" height="36"/><text font-family="NotoSans, 'Helvetica Neue', Roboto, Helvetica, Arial, sans-serif" font-size="12" font-weight="bold" lengthAdjust="spacingAndGlyphs" style="fill:#FFFFFF;"><tspan y="27" x="78" text-anchor="middle" textLength="143">Documents/ References</tspan></text></g><g transform="translate(-665,299.4375)"><rect x="0" y="0" width="149" height="66" border="1" rx="10" ry="10" style="fill:#E0E0E0;stroke:#707070;stroke-width:1px;"/><image xlink:href="image17.png" x="111" y="17" width="32" height="32"/><text font-family="NotoSans, 'Helvetica Neue', Roboto, Helvetica, Arial, sans-serif" font-size="12" font-weight="bold" lengthAdjust="spacingAndGlyphs" style="fill:#4F4F4F;"><tspan y="18" x="56" text-anchor="middle" textLength="81">International</tspan><tspan y="36" x="56" text-anchor="middle" textLength="100">Organization for</tspan><tspan y="54" x="56" text-anchor="middle" textLength="96">Standardization</tspan></text></g><g transform="translate(-843,134.4375)"><rect x="0" y="0" width="158" height="66" border="1" rx="10" ry="10" style="fill:#E0E0E0;stroke:#707070;stroke-width:1px;"/><text font-family="NotoSans, 'Helvetica Neue', Roboto, Helvetica, Arial, sans-serif" font-size="12" font-weight="bold" lengthAdjust="spacingAndGlyphs" style="fill:#4F4F4F;"><tspan y="18" x="79" text-anchor="middle" textLength="52">ISO 1043</tspan><tspan y="36" x="79" text-anchor="middle" textLength="140">Plastics — Symbols and</tspan><tspan y="54" x="79" text-anchor="middle" textLength="111">abbreviated terms</tspan></text></g><g transform="translate(-843,220.4375)"><rect x="0" y="0" width="158" height="66" border="1" rx="10" ry="10" style="fill:#E0E0E0;stroke:#707070;stroke-width:1px;"/><text font-family="NotoSans, 'Helvetica Neue', Roboto, Helvetica, Arial, sans-serif" font-size="12" font-weight="bold" lengthAdjust="spacingAndGlyphs" style="fill:#4F4F4F;"><tspan y="18" x="79" text-anchor="middle" textLength="78">DIN ISO 1629</tspan><tspan y="36" x="79" text-anchor="middle" textLength="121">Rubber and latices –</tspan><tspan y="54" x="79" text-anchor="middle" textLength="87">Nomenclature</tspan></text></g><g transform="translate(-843,306.4375)"><rect x="0" y="0" width="158" height="102" border="1" rx="10" ry="10" style="fill:#E0E0E0;stroke:#707070;stroke-width:1px;"/><text font-family="NotoSans, 'Helvetica Neue', Roboto, Helvetica, Arial, sans-serif" font-size="12" font-weight="bold" lengthAdjust="spacingAndGlyphs" style="fill:#4F4F4F;"><tspan y="18" x="79" text-anchor="middle" textLength="59">ISO 11469</tspan><tspan y="36" x="79" text-anchor="middle" textLength="110">Plastics — Generic</tspan><tspan y="54" x="79" text-anchor="middle" textLength="107">identification and</tspan><tspan y="72" x="79" text-anchor="middle" textLength="115">marking of plastics</tspan><tspan y="90" x="79" text-anchor="middle" textLength="54">products</tspan></text></g><g transform="translate(-843,428.4375)"><rect x="0" y="0" width="158" height="102" border="1" rx="10" ry="10" style="fill:#E0E0E0;stroke:#707070;stroke-width:1px;"/><text font-family="NotoSans, 'Helvetica Neue', Roboto, Helvetica, Arial, sans-serif" font-size="12" font-weight="bold" lengthAdjust="spacingAndGlyphs" style="fill:#4F4F4F;"><tspan y="18" x="79" text-anchor="middle" textLength="59">ISO 18064</tspan><tspan y="36" x="79" text-anchor="middle" textLength="87">Thermoplastic</tspan><tspan y="54" x="79" text-anchor="middle" textLength="83">elastomers —</tspan><tspan y="72" x="79" text-anchor="middle" textLength="113">Nomenclature and</tspan><tspan y="90" x="79" text-anchor="middle" textLength="111">abbreviated terms</tspan></text></g><g transform="translate(-73,-284.484375)"><rect x="0" y="0" width="85" height="48" border="1" rx="10" ry="10" style="fill:#a71930;stroke:#707070;stroke-width:1px;"/><image xlink:href="image1.png" x="6" y="6" width="36" height="36"/><text font-family="NotoSans, 'Helvetica Neue', Roboto, Helvetica, Arial, sans-serif" font-size="12" font-weight="bold" lengthAdjust="spacingAndGlyphs" style="fill:#FFFFFF;"><tspan y="27" x="63" text-anchor="middle" textLength="32">Tools</tspan></text></g><g transform="translate(32,-386.484375)"><rect x="0" y="0" width="85" height="48" border="1" rx="10" ry="10" style="fill:#E0E0E0;stroke:#707070;stroke-width:1px;"/><image xlink:href="image2.png" x="6" y="6" width="36" height="36"/><text font-family="NotoSans, 'Helvetica Neue', Roboto, Helvetica, Arial, sans-serif" font-size="12" font-weight="bold" lengthAdjust="spacingAndGlyphs" style="fill:#4F4F4F;"><tspan y="27" x="63" text-anchor="middle" textLength="32">IMDS</tspan></text></g><g transform="translate(32,-318.484375)"><rect x="0" y="0" width="55" height="30" border="1" rx="10" ry="10" style="fill:#E0E0E0;stroke:#707070;stroke-width:1px;"/><text font-family="NotoSans, 'Helvetica Neue', Roboto, Helvetica, Arial, sans-serif" font-size="12" font-weight="bold" lengthAdjust="spacingAndGlyphs" style="fill:#4F4F4F;"><tspan y="18" x="28" text-anchor="middle" textLength="43">CAMDS</tspan></text></g><g transform="translate(32,-268.484375)"><rect x="0" y="0" width="158" height="66" border="1" rx="10" ry="10" style="fill:#E0E0E0;stroke:#707070;stroke-width:1px;"/><text font-family="NotoSans, 'Helvetica Neue', Roboto, Helvetica, Arial, sans-serif" font-size="12" font-weight="bold" lengthAdjust="spacingAndGlyphs" style="fill:#4F4F4F;"><tspan y="18" x="79" text-anchor="middle" textLength="50">MatWeb</tspan><tspan y="36" x="79" text-anchor="middle" textLength="126">MATERIAL PROPERTY</tspan><tspan y="54" x="79" text-anchor="middle" textLength="32">DATA</tspan></text></g><g transform="translate(32,-182.484375)"><rect x="0" y="0" width="166" height="48" border="1" rx="10" ry="10" style="fill:#E0E0E0;stroke:#707070;stroke-width:1px;"/><image xlink:href="image3.png" x="6" y="6" width="36" height="36"/><text font-family="NotoSans, 'Helvetica Neue', Roboto, Helvetica, Arial, sans-serif" font-size="12" font-weight="bold" lengthAdjust="spacingAndGlyphs" style="fill:#4F4F4F;"><tspan y="27" x="104" text-anchor="middle" textLength="113">SharePoint/ Teams</tspan></text></g><g transform="translate(-73,6)"><rect x="0" y="0" width="100" height="48" border="1" rx="10" ry="10" style="fill:#a71930;stroke:#707070;stroke-width:1px;"/><image xlink:href="image4.png" x="6" y="6" width="36" height="36"/><text font-family="NotoSans, 'Helvetica Neue', Roboto, Helvetica, Arial, sans-serif" font-size="12" font-weight="bold" lengthAdjust="spacingAndGlyphs" style="fill:#FFFFFF;"><tspan y="27" x="71" text-anchor="middle" textLength="47">Reports</tspan></text></g><g transform="translate(47,-62)"><rect x="0" y="0" width="166" height="48" border="1" rx="10" ry="10" style="fill:#E0E0E0;stroke:#707070;stroke-width:1px;"/><image xlink:href="image5.png" x="6" y="6" width="36" height="36"/><text font-family="NotoSans, 'Helvetica Neue', Roboto, Helvetica, Arial, sans-serif" font-size="12" font-weight="bold" lengthAdjust="spacingAndGlyphs" style="fill:#4F4F4F;"><tspan y="27" x="104" text-anchor="middle" textLength="113">Teams/ SharePoint</tspan></text></g><g transform="translate(47,6)"><rect x="0" y="0" width="107" height="48" border="1" rx="10" ry="10" style="fill:#E0E0E0;stroke:#707070;stroke-width:1px;"/><image xlink:href="image6.png" x="6" y="6" width="36" height="36"/><text font-family="NotoSans, 'Helvetica Neue', Roboto, Helvetica, Arial, sans-serif" font-size="12" font-weight="bold" lengthAdjust="spacingAndGlyphs" style="fill:#4F4F4F;"><tspan y="27" x="74" text-anchor="middle" textLength="54">Power BI</tspan></text></g><g transform="translate(47,74)"><rect x="0" y="0" width="130" height="48" border="1" rx="10" ry="10" style="fill:#E0E0E0;stroke:#707070;stroke-width:1px;"/><image xlink:href="image7.png" x="6" y="6" width="36" height="36"/><text font-family="NotoSans, 'Helvetica Neue', Roboto, Helvetica, Arial, sans-serif" font-size="12" font-weight="bold" lengthAdjust="spacingAndGlyphs" style="fill:#4F4F4F;"><tspan y="27" x="86" text-anchor="middle" textLength="77">Shared Drive</tspan></text></g></g></svg>